<svg width="38" height="38" viewBox="0 0 38 38" fill="none" xmlns="http://www.w3.org/2000/svg">
<path d="M24.2409 29.925C22.7209 31.5083 20.9792 33.1391 19 34.8333C10.5609 27.6291 6.33337 21.4066 6.33337 16.15C6.33337 8.26496 12.35 3.16663 19 3.16663C25.3334 3.16663 31.0967 7.78996 31.6192 15.0416H37.2084L30.0834 22.1666L22.9584 15.0416H28.4525C27.9459 9.87996 23.9559 6.33329 19 6.33329C13.6959 6.33329 9.50004 10.4025 9.50004 16.15C9.50004 19.855 12.5875 24.7633 19 30.6216C20.0134 29.6875 20.9475 28.785 21.8025 27.9141C21.5239 27.3644 21.3775 26.7571 21.375 26.1408C21.375 25.091 21.7921 24.0842 22.5344 23.3418C23.2767 22.5995 24.2836 22.1825 25.3334 22.1825C26.3832 22.1825 27.39 22.5995 28.1323 23.3418C28.8747 24.0842 29.2917 25.091 29.2917 26.1408C29.2912 26.7531 29.1481 27.3568 28.8739 27.9043C28.5997 28.4517 28.2019 28.9278 27.7119 29.295C27.2219 29.6621 26.6531 29.9101 26.0507 30.0195C25.4483 30.1288 24.8286 30.0965 24.2409 29.925Z" fill="#FA793C"/>
</svg>
